<svg width="526" height="560" viewBox="0 0 526 560" fill="none" xmlns="http://www.w3.org/2000/svg">
<path d="M416.859 359.777C416.859 360.528 416.25 361.138 415.498 361.138H279.924C279.473 361.138 279.108 360.772 279.108 360.321V348.604C279.108 348.437 279.159 348.274 279.255 348.137L322.819 285.679C323.197 285.138 322.81 284.396 322.15 284.396H226.398C225.646 284.396 225.037 283.786 225.037 283.035V269.467C225.037 268.715 225.646 268.105 226.398 268.105L346.315 268.105C346.766 268.105 347.132 268.471 347.132 268.922V280.576C347.132 280.743 347.081 280.906 346.986 281.042L303.481 343.564C303.105 344.106 303.492 344.848 304.152 344.848H415.498C416.25 344.848 416.859 345.457 416.859 346.209V359.777Z" fill="white"/>
<path d="M281.071 32.7787C278.552 19.9359 285.441 7.09873 297.535 2.09754C312.912 -4.26113 330.367 4.39923 334.606 20.4902L371.159 130.746C376.558 151.238 400.937 159.809 417.972 147.203L510.351 93.4097C524.196 83.1644 543.983 88.6577 550.565 104.574C555.095 115.529 551.79 128.16 542.475 135.493L405.249 243.516C370.038 271.234 317.973 251.927 309.348 207.952L281.071 32.7787Z" fill="#002C6E"/>
<path d="M584.034 215.126C595.787 209.368 609.97 212.7 617.931 223.087C628.053 236.295 624.205 255.397 609.759 263.656L512.721 327.5C494.324 338.018 492.355 363.785 508.94 376.977L584.811 452.286C598.29 463.007 598.105 483.541 584.435 494.018C575.026 501.229 561.97 501.306 552.476 494.206L412.617 389.615C403.317 382.66 396.774 373.795 392.885 364.133H408.714C414.868 364.133 419.856 359.145 419.856 352.991C419.856 346.837 414.868 341.848 408.714 341.848H388.568C388.519 320.165 400.043 298.604 422.147 287.777L584.034 215.126Z" fill="#002C6E"/>
<path d="M259.784 265.106C268.123 249.861 269.992 230.943 262.221 212.819L193.395 52.3108C188.723 41.4155 177.378 34.954 165.624 36.4943C148.547 38.7322 138.119 56.423 144.432 72.4476L172.483 175.603C180.251 195.319 165.662 216.65 144.47 216.56L28.5111 223.332C11.8712 223.261 -1.01185 237.88 1.15027 254.379C2.85084 267.356 13.4677 277.332 26.5249 278.223L203.048 296.248C216.437 297.162 228.696 293.74 238.829 287.391H233.182C227.028 287.391 222.04 282.402 222.04 276.249C222.04 270.095 227.028 265.106 233.182 265.106H259.784Z" fill="#002C6E"/>
<path d="M168.126 605.96C181.101 607.676 193.485 600.003 197.725 587.622L260.824 421.778C275.341 379.383 239.905 336.63 195.552 343.029L22.6994 367.967C10.9662 369.659 1.78872 378.946 0.23431 390.698C-2.02403 407.773 12.3652 422.424 29.4777 420.473L136.378 420.076C157.433 417.677 174.261 437.289 168.69 457.735L145.218 571.496C140.843 587.551 151.63 603.778 168.126 605.96Z" fill="#002C6E"/>
<path d="M134.276 459.217C121.187 442.136 96.7291 438.902 79.649 451.992C62.5688 465.081 59.3339 489.539 72.4237 506.619C85.5135 523.699 109.971 526.934 127.051 513.844C144.131 500.754 147.366 476.297 134.276 459.217Z" fill="#002C6E"/>
<path d="M510.279 535.187C519.886 544.074 521.893 558.504 515.073 569.675C506.403 583.878 487.199 587.176 474.287 576.679L379.752 509.184C363.309 495.816 338.564 503.27 332.239 523.495L289.348 621.414C284.208 637.852 264.987 645.083 250.287 636.109C240.168 629.932 235.39 617.782 238.589 606.367L285.724 438.206C297.818 395.057 351.254 379.95 384.15 410.38L510.279 535.187Z" fill="#002C6E"/>
<path d="M367.182 541.254C346.266 546.313 333.412 567.37 338.472 588.286C343.531 609.202 364.588 622.056 385.504 616.997C406.42 611.938 419.274 590.88 414.215 569.965C409.155 549.049 388.098 536.194 367.182 541.254Z" fill="#002C6E"/>
<path d="M538.103 350.786C535.281 372.12 550.288 391.701 571.621 394.522C592.955 397.344 612.536 382.337 615.358 361.004C618.179 339.671 603.172 320.089 581.839 317.268C560.506 314.446 540.924 329.453 538.103 350.786Z" fill="#002C6E"/>
<path d="M400.222 112.256C420.098 120.503 442.896 111.076 451.143 91.1996C459.39 71.3235 449.962 48.5253 430.086 40.2784C410.21 32.0314 387.412 41.4588 379.165 61.335C370.918 81.2112 380.345 104.009 400.222 112.256Z" fill="#002C6E"/>
<path d="M134.133 183.703C147.243 166.639 144.037 142.177 126.973 129.067C109.909 115.957 85.4473 119.162 72.337 136.227C59.2267 153.291 62.4321 177.752 79.4966 190.863C96.561 203.973 121.022 200.767 134.133 183.703Z" fill="#002C6E"/>
</svg>
