<svg width="36" height="36" viewBox="0 0 36 36" fill="none" xmlns="http://www.w3.org/2000/svg">
<path d="M18.0641 0.47998C13.2994 0.47998 12.7014 0.500633 10.8301 0.585053C8.96236 0.669836 7.68749 0.962952 6.57198 1.39302C5.41809 1.83723 4.43928 2.43143 3.46413 3.39846C2.48824 4.36513 1.88882 5.33541 1.43925 6.47889C1.00431 7.58505 0.708249 8.84918 0.624184 10.6999C0.540485 12.555 0.518555 13.1481 0.518555 17.8713C0.518555 22.5945 0.539754 23.1854 0.62455 25.0405C0.710443 26.8919 1.00613 28.1557 1.43962 29.2615C1.88809 30.4053 2.48751 31.3756 3.46303 32.3423C4.43782 33.3097 5.41663 33.9053 6.56979 34.3495C7.68603 34.7796 8.96126 35.0727 10.8286 35.1575C12.7 35.2419 13.2976 35.2626 18.0619 35.2626C22.8269 35.2626 23.423 35.2419 25.2944 35.1575C27.1621 35.0727 28.4384 34.7796 29.5547 34.3495C30.7082 33.9053 31.6855 33.3097 32.6603 32.3423C33.6362 31.3756 34.2356 30.4053 34.6852 29.2619C35.1165 28.1557 35.4126 26.8916 35.5003 25.0409C35.5843 23.1858 35.6063 22.5945 35.6063 17.8713C35.6063 13.1481 35.5843 12.5553 35.5003 10.7003C35.4126 8.84882 35.1165 7.58505 34.6852 6.47926C34.2356 5.33541 33.6362 4.36513 32.6603 3.39846C31.6845 2.43107 30.7086 1.83686 29.5536 1.39302C28.4351 0.962952 27.1595 0.669836 25.2918 0.585053C23.4205 0.500633 22.8247 0.47998 18.0586 0.47998H18.0641ZM16.4902 3.61404C16.9573 3.61331 17.4785 3.61404 18.0641 3.61404C22.7483 3.61404 23.3035 3.63071 25.1533 3.71404C26.8639 3.79157 27.7922 4.07491 28.4107 4.31295C29.2294 4.62817 29.8131 5.00498 30.4268 5.61368C31.0408 6.22237 31.4209 6.80208 31.7396 7.61368C31.9798 8.22599 32.266 9.14629 32.3438 10.8419C32.4279 12.6753 32.4462 13.226 32.4462 17.8673C32.4462 22.5086 32.4279 23.0593 32.3438 24.8927C32.2656 26.5883 31.9798 27.5086 31.7396 28.1209C31.4217 28.9325 31.0408 29.5104 30.4268 30.1187C29.8127 30.7274 29.2297 31.1043 28.4107 31.4195C27.793 31.6586 26.8639 31.9412 25.1533 32.0187C23.3039 32.1021 22.7483 32.1202 18.0641 32.1202C13.3794 32.1202 12.8242 32.1021 10.9748 32.0187C9.26426 31.9405 8.33589 31.6572 7.71709 31.4191C6.89837 31.1039 6.31357 30.7271 5.69953 30.1184C5.08549 29.5097 4.70537 28.9314 4.38665 28.1195C4.14652 27.5072 3.86033 26.5869 3.78248 24.8912C3.69841 23.0579 3.6816 22.5072 3.6816 17.863C3.6816 13.2187 3.69841 12.6709 3.78248 10.8376C3.86069 9.14194 4.14652 8.22165 4.38665 7.6086C4.70464 6.79701 5.08549 6.2173 5.69953 5.6086C6.31357 4.99991 6.89837 4.6231 7.71709 4.30715C8.33552 4.06802 9.26426 3.78542 10.9748 3.70752C12.5932 3.63505 13.2204 3.61331 16.4902 3.60969V3.61404ZM27.4289 6.50172C26.2666 6.50172 25.3236 7.43541 25.3236 8.58795C25.3236 9.74012 26.2666 10.6749 27.4289 10.6749C28.5912 10.6749 29.5342 9.74012 29.5342 8.58795C29.5342 7.43578 28.5912 6.501 27.4289 6.501V6.50172ZM18.0641 8.94012C13.0885 8.94012 9.05446 12.939 9.05446 17.8713C9.05446 22.8035 13.0885 26.8006 18.0641 26.8006C23.0396 26.8006 27.0722 22.8035 27.0722 17.8713C27.0722 12.939 23.0393 8.94012 18.0637 8.94012H18.0641ZM18.0641 12.0742C21.2936 12.0742 23.9121 14.6695 23.9121 17.8713C23.9121 21.0727 21.2936 23.6684 18.0641 23.6684C14.8341 23.6684 12.216 21.0727 12.216 17.8713C12.216 14.6695 14.8341 12.0742 18.0641 12.0742Z" fill="white"/>
</svg>
