<svg width="96" height="96" viewBox="0 0 96 96" fill="none" xmlns="http://www.w3.org/2000/svg">
<path d="M12.627 19.377C13.1778 18.5187 14.13 18 15.1494 18H36C40.9629 18 45 22.0371 45 27V48C45 52.9629 40.9629 57 36 57H30.0438C32.8299 65.0685 35.2089 68.9325 43.125 72.2313C44.4462 72.7821 45.1935 74.1882 44.9121 75.5916C44.631 76.9923 43.4004 78 41.9706 78C41.9676 78 41.9676 78 41.9646 78C25.4499 77.9706 15.9636 71.3496 9.237 55.1661C7.0899 50.0829 6 44.6427 6 39C6 30.3222 8.625 25.5966 12.627 19.377ZM60.1494 18H81C85.9629 18 90 22.0371 90 27V48C90 52.9629 85.9629 57 81 57H75.0438C77.8299 65.0685 80.2089 68.9325 88.125 72.2313C89.4462 72.7821 90.1935 74.1882 89.9121 75.5916C89.631 76.9923 88.4004 78 86.9706 78C86.9676 78 86.9676 78 86.9646 78C70.4499 77.9706 60.9636 71.3496 54.237 55.1661C52.0899 50.0829 51 44.6427 51 39C51 30.3222 53.625 25.5966 57.627 19.377C58.1778 18.5187 59.13 18 60.1494 18Z" fill="#002C6E"/>
</svg>
