<svg width="443" height="459" viewBox="0 0 443 459" fill="none" xmlns="http://www.w3.org/2000/svg">
<path d="M281.071 -148.221C278.552 -161.064 285.441 -173.901 297.535 -178.902C312.912 -185.261 330.367 -176.601 334.606 -160.51L371.159 -50.2542C376.558 -29.7619 400.937 -21.1908 417.972 -33.7966L510.351 -87.5903C524.196 -97.8356 543.983 -92.3423 550.565 -76.4261C555.095 -65.471 551.79 -52.84 542.475 -45.5074L405.249 62.5161C370.038 90.2341 317.973 70.9265 309.348 26.9524L281.071 -148.221Z" fill="#4F96FF"/>
<path d="M584.034 34.1255C595.787 28.3683 609.97 31.6996 617.931 42.0874C628.053 55.2948 624.205 74.3969 609.759 82.656L512.721 146.5C494.324 157.018 492.355 182.785 508.94 195.977L584.811 271.286C598.29 282.007 598.105 302.541 584.435 313.018C575.026 320.229 561.97 320.306 552.476 313.206L412.617 208.615C403.317 201.66 396.774 192.795 392.885 183.133H408.714C414.868 183.133 419.856 178.145 419.856 171.991C419.856 165.837 414.868 160.848 408.714 160.848H388.568C388.519 139.165 400.043 117.604 422.147 106.777L584.034 34.1255Z" fill="#4F96FF"/>
<path d="M259.784 84.1063C268.123 68.8614 269.992 49.9425 262.221 31.8191L193.395 -128.689C188.723 -139.585 177.378 -146.046 165.624 -144.506C148.547 -142.268 138.119 -124.577 144.432 -108.552L172.483 -5.39742C180.251 14.319 165.662 35.6497 144.47 35.5603L28.5111 42.3316C11.8712 42.2614 -1.01185 56.8804 1.15027 73.3793C2.85084 86.3561 13.4677 96.3323 26.5249 97.2232L203.048 115.248C216.436 116.162 228.696 112.74 238.829 106.391H233.182C227.028 106.391 222.04 101.402 222.04 95.2486C222.04 89.095 227.028 84.1063 233.182 84.1063H259.784Z" fill="#4F96FF"/>
<path d="M168.126 424.96C181.101 426.676 193.485 419.003 197.725 406.622L260.824 240.778C275.341 198.383 239.905 155.63 195.552 162.029L22.6994 186.967C10.9662 188.659 1.78872 197.946 0.23431 209.698C-2.02403 226.773 12.3652 241.424 29.4777 239.473L136.378 239.076C157.433 236.677 174.261 256.289 168.69 276.735L145.218 390.496C140.843 406.551 151.63 422.778 168.126 424.96Z" fill="#4F96FF"/>
<path d="M134.276 278.217C121.187 261.136 96.7291 257.902 79.649 270.992C62.5688 284.081 59.3339 308.539 72.4237 325.619C85.5135 342.699 109.971 345.934 127.051 332.844C144.131 319.754 147.366 295.297 134.276 278.217Z" fill="#4F96FF"/>
<path d="M510.279 354.187C519.886 363.074 521.893 377.504 515.073 388.675C506.403 402.878 487.199 406.176 474.287 395.679L379.752 328.184C363.309 314.816 338.564 322.27 332.239 342.495L289.348 440.414C284.208 456.852 264.987 464.083 250.287 455.109C240.168 448.932 235.39 436.782 238.589 425.367L285.724 257.206C297.818 214.057 351.254 198.95 384.15 229.38L510.279 354.187Z" fill="#4F96FF"/>
<path d="M367.182 360.254C346.266 365.313 333.412 386.37 338.472 407.286C343.531 428.202 364.588 441.056 385.504 435.997C406.42 430.938 419.274 409.88 414.215 388.965C409.155 368.049 388.098 355.194 367.182 360.254Z" fill="#4F96FF"/>
<path d="M538.103 169.786C535.281 191.12 550.288 210.701 571.621 213.522C592.955 216.344 612.536 201.337 615.358 180.004C618.179 158.671 603.172 139.089 581.839 136.268C560.506 133.446 540.924 148.453 538.103 169.786Z" fill="#4F96FF"/>
<path d="M400.222 -68.7437C420.098 -60.4968 442.896 -69.924 451.143 -89.8004C459.39 -109.677 449.962 -132.475 430.086 -140.722C410.21 -148.969 387.412 -139.541 379.165 -119.665C370.918 -99.7888 380.345 -76.9906 400.222 -68.7437Z" fill="#4F96FF"/>
<path d="M134.133 2.70299C147.243 -14.3615 144.037 -38.8229 126.973 -51.933C109.909 -65.0433 85.4473 -61.8379 72.337 -44.7734C59.2267 -27.709 62.4321 -3.24754 79.4966 9.86273C96.561 22.973 121.022 19.7674 134.133 2.70299Z" fill="#4F96FF"/>
</svg>
