<svg width="40" height="32" viewBox="0 0 40 32" fill="none" xmlns="http://www.w3.org/2000/svg">
<path d="M12.6296 31.8679C27.6243 31.8679 35.8243 19.6586 35.8243 9.07119C35.8243 8.7244 35.8171 8.37919 35.8013 8.03553C37.393 6.90458 38.7765 5.49325 39.8677 3.88664C38.407 4.52475 36.8351 4.95431 35.1862 5.14801C36.8693 4.15609 38.1614 2.58699 38.771 0.716444C37.1959 1.63417 35.4517 2.30118 33.5945 2.66129C32.1069 1.10395 29.989 0.129883 27.6439 0.129883C23.1421 0.129883 19.4914 3.71804 19.4914 8.14096C19.4914 8.76969 19.5629 9.38125 19.7028 9.96786C12.9275 9.63279 6.9196 6.44457 2.8988 1.59667C2.19869 2.78072 1.795 4.15613 1.795 5.62371C1.795 8.40345 3.2342 10.8574 5.42273 12.293C4.08526 12.2524 2.82886 11.8915 1.73073 11.2909C1.72953 11.3245 1.72952 11.3573 1.72952 11.3932C1.72952 15.2735 4.53953 18.5132 8.26966 19.2473C7.58465 19.4309 6.86393 19.5293 6.12006 19.5293C5.59558 19.5293 5.08459 19.4785 4.58792 19.3848C5.62576 22.5683 8.63526 24.8849 12.2033 24.9496C9.41312 27.0991 5.89833 28.3792 2.07833 28.3792C1.42113 28.3792 0.771882 28.3425 0.133789 28.2683C3.74166 30.5412 8.02566 31.8674 12.6301 31.8674" fill="white"/>
</svg>
