<svg width="24" height="24" viewBox="0 0 24 24" fill="none" xmlns="http://www.w3.org/2000/svg">
<g clip-path="url(#clip0_62_243)">
<path d="M22.5103 13.7601C22.1395 13.2482 21.9398 12.6322 21.9398 12.0001C21.9398 11.368 22.1395 10.752 22.5103 10.2401L23.2703 9.19011C23.3633 9.0619 23.4244 8.91345 23.4488 8.75698C23.4731 8.60051 23.4599 8.4405 23.4103 8.29011C23.3602 8.1413 23.2764 8.0061 23.1654 7.89507C23.0543 7.78405 22.9191 7.70021 22.7703 7.65011L21.5403 7.25011C20.9378 7.05575 20.4126 6.67496 20.0405 6.16271C19.6685 5.65045 19.4688 5.03323 19.4703 4.40011V3.10011C19.4702 2.94228 19.4327 2.78671 19.361 2.64614C19.2892 2.50556 19.1852 2.38397 19.0574 2.29131C18.9296 2.19865 18.7817 2.13755 18.6258 2.11301C18.4699 2.08847 18.3104 2.10118 18.1603 2.15011L16.9203 2.55011C16.3183 2.74491 15.6702 2.74439 15.0685 2.54862C14.4668 2.35285 13.9424 1.97186 13.5703 1.46011L12.8103 0.410112C12.7133 0.288421 12.5901 0.190158 12.4499 0.122624C12.3096 0.0550893 12.156 0.0200195 12.0003 0.0200195C11.8447 0.0200195 11.691 0.0550893 11.5508 0.122624C11.4106 0.190158 11.2874 0.288421 11.1903 0.410112L10.4303 1.46011C10.0582 1.97186 9.53386 2.35285 8.93218 2.54862C8.3305 2.74439 7.68233 2.74491 7.08034 2.55011L5.84034 2.15011C5.69028 2.10118 5.53077 2.08847 5.37485 2.11301C5.21894 2.13755 5.07104 2.19865 4.94327 2.29131C4.8155 2.38397 4.71147 2.50556 4.6397 2.64614C4.56793 2.78671 4.53045 2.94228 4.53034 3.10011V4.40011C4.53187 5.03323 4.3322 5.65045 3.96014 6.16271C3.58808 6.67496 3.06288 7.05575 2.46034 7.25011L1.23034 7.65011C1.08153 7.70021 0.946326 7.78405 0.835299 7.89507C0.724273 8.0061 0.640434 8.1413 0.590338 8.29011C0.54075 8.4405 0.527583 8.60051 0.551923 8.75698C0.576262 8.91345 0.637412 9.0619 0.730338 9.19011L1.49034 10.2401C1.86118 10.752 2.06085 11.368 2.06085 12.0001C2.06085 12.6322 1.86118 13.2482 1.49034 13.7601L0.730338 14.8101C0.637412 14.9383 0.576262 15.0868 0.551923 15.2432C0.527583 15.3997 0.54075 15.5597 0.590338 15.7101C0.640434 15.8589 0.724273 15.9941 0.835299 16.1052C0.946326 16.2162 1.08153 16.3 1.23034 16.3501L2.46034 16.7501C3.06288 16.9445 3.58808 17.3253 3.96014 17.8375C4.3322 18.3498 4.53187 18.967 4.53034 19.6001V20.9001C4.53045 21.0579 4.56793 21.2135 4.6397 21.3541C4.71147 21.4947 4.8155 21.6163 4.94327 21.7089C5.07104 21.8016 5.21894 21.8627 5.37485 21.8872C5.53077 21.9118 5.69028 21.899 5.84034 21.8501L7.07034 21.4501C7.67361 21.252 8.32424 21.2509 8.92821 21.4468C9.53219 21.6427 10.0582 22.0256 10.4303 22.5401L11.1903 23.5901C11.2837 23.7172 11.4057 23.8206 11.5464 23.8918C11.6871 23.9631 11.8426 24.0002 12.0003 24.0002C12.1581 24.0002 12.3136 23.9631 12.4543 23.8918C12.595 23.8206 12.717 23.7172 12.8103 23.5901L13.5703 22.5401C13.9431 22.0263 14.4691 21.644 15.0729 21.4482C15.6767 21.2523 16.327 21.253 16.9303 21.4501L18.1603 21.8501C18.3104 21.899 18.4699 21.9118 18.6258 21.8872C18.7817 21.8627 18.9296 21.8016 19.0574 21.7089C19.1852 21.6163 19.2892 21.4947 19.361 21.3541C19.4327 21.2135 19.4702 21.0579 19.4703 20.9001V19.6001C19.4688 18.967 19.6685 18.3498 20.0405 17.8375C20.4126 17.3253 20.9378 16.9445 21.5403 16.7501L22.7703 16.3501C22.9191 16.3 23.0543 16.2162 23.1654 16.1052C23.2764 15.9941 23.3602 15.8589 23.4103 15.7101C23.4599 15.5597 23.4731 15.3997 23.4488 15.2432C23.4244 15.0868 23.3633 14.9383 23.2703 14.8101L22.5103 13.7601ZM16.7103 10.7071L11.7103 15.7071C11.5228 15.8946 11.2685 15.9999 11.0033 15.9999C10.7382 15.9999 10.4839 15.8946 10.2963 15.7071L7.29634 12.7071C7.20083 12.6149 7.12465 12.5045 7.07224 12.3825C7.01983 12.2605 6.99224 12.1293 6.99109 11.9965C6.98993 11.8637 7.01524 11.7321 7.06552 11.6092C7.1158 11.4863 7.19005 11.3746 7.28394 11.2807C7.37784 11.1868 7.48949 11.1126 7.61238 11.0623C7.73528 11.012 7.86696 10.9867 7.99974 10.9879C8.13252 10.989 8.26374 11.0166 8.38574 11.069C8.50775 11.1214 8.61809 11.1976 8.71034 11.2931L11.0003 13.5861L15.2933 9.29311C15.4819 9.11095 15.7345 9.01016 15.9967 9.01244C16.2589 9.01472 16.5097 9.11989 16.6952 9.30529C16.8806 9.4907 16.9857 9.74152 16.988 10.0037C16.9903 10.2659 16.8895 10.5185 16.7073 10.7071H16.7103Z" fill="#002C6E"/>
</g>
<defs>
<clipPath id="clip0_62_243">
<rect width="24" height="24" fill="white"/>
</clipPath>
</defs>
</svg>
