<svg width="40" height="32" viewBox="0 0 40 32" fill="none" xmlns="http://www.w3.org/2000/svg">
<path d="M39.1761 5.00706C38.7148 3.04941 37.3639 1.50588 35.6506 0.978823C32.5205 0 19.9999 0 19.9999 0C19.9999 0 7.47937 0 4.34924 0.941176C2.66885 1.46824 1.285 3.04941 0.82372 5.00706C0 8.58353 0 16 0 16C0 16 0 23.4541 0.82372 26.9929C1.285 28.9506 2.6359 30.4941 4.34924 31.0212C7.51232 32 19.9999 32 19.9999 32C19.9999 32 32.5205 32 35.6506 31.0588C37.3639 30.5318 38.7148 28.9882 39.1761 27.0306C39.9998 23.4541 39.9998 16.0376 39.9998 16.0376C39.9998 16.0376 40.0328 8.58353 39.1761 5.00706Z" fill="white"/>
<path opacity="0.7" d="M26.4245 16.0002L16.0127 9.14844V22.852L26.4245 16.0002Z" fill="#2A80FF"/>
</svg>
