<svg width="201" height="59" viewBox="0 0 201 59" fill="none" xmlns="http://www.w3.org/2000/svg">
<path d="M37.8603 32.0596C37.8603 32.4681 37.5291 32.7993 37.1205 32.7993H26.166C25.7149 32.7993 25.3493 32.4337 25.3493 31.9827V31.8943C25.3493 31.7272 25.4006 31.5642 25.4962 31.4271L28.5052 27.1132C28.8828 26.5719 28.4954 25.8294 27.8353 25.8294H21.1782C20.7697 25.8294 20.4385 25.4982 20.4385 25.0896C20.4385 24.6811 20.7697 24.3499 21.1782 24.3499H30.7108C31.1618 24.3499 31.5275 24.7155 31.5275 25.1665V25.2496C31.5275 25.4164 31.4764 25.5791 31.3811 25.716L28.3747 30.0367C27.9979 30.5782 28.3854 31.3198 29.045 31.3198H37.1205C37.5291 31.3198 37.8603 31.651 37.8603 32.0596Z" fill="#2A80FF"/>
<path d="M25.5276 2.97705C25.2988 1.81063 25.9245 0.644725 27.0229 0.190504C28.4195 -0.387007 30.0048 0.39955 30.3898 1.86097L33.7097 11.8747C34.2 13.7358 36.4142 14.5143 37.9613 13.3694L46.3515 8.48372C47.6089 7.55321 49.406 8.05213 50.0037 9.49768C50.4152 10.4927 50.115 11.6398 49.269 12.3058L36.8058 22.1168C33.6078 24.6342 28.8792 22.8806 28.0958 18.8868L25.5276 2.97705Z" fill="white"/>
<path d="M53.0435 19.5383C54.111 19.0154 55.3991 19.3179 56.1221 20.2614C57.0414 21.4609 56.692 23.1958 55.38 23.9459L46.5667 29.7444C44.8959 30.6997 44.717 33.0399 46.2233 34.238L53.1141 41.0778C54.3383 42.0515 54.3215 43.9165 53.0799 44.8681C52.2254 45.523 51.0396 45.53 50.1773 44.8852L37.475 35.3859C36.6303 34.7542 36.0361 33.949 35.6829 33.0715H37.1205C37.6794 33.0715 38.1325 32.6185 38.1325 32.0596C38.1325 31.5007 37.6794 31.0476 37.1205 31.0476H35.2908C35.2863 29.0782 36.333 27.1201 38.3406 26.1367L53.0435 19.5383Z" fill="white"/>
<path d="M23.5943 24.0777C24.3517 22.6931 24.5214 20.9748 23.8156 19.3288L17.5647 4.751C17.1404 3.76147 16.1099 3.17462 15.0424 3.31451C13.4914 3.51776 12.5443 5.12449 13.1177 6.57989L15.6654 15.9487C16.3708 17.7394 15.0458 19.6767 13.1212 19.6686L2.58945 20.2836C1.07818 20.2772 -0.0918988 21.6049 0.104471 23.1034C0.258921 24.282 1.22317 25.1881 2.40907 25.269L18.4414 26.9061C19.6573 26.989 20.7708 26.6782 21.6911 26.1016H21.1782C20.6193 26.1016 20.1663 25.6485 20.1663 25.0896C20.1663 24.5308 20.6193 24.0777 21.1782 24.0777H23.5943Z" fill="white"/>
<path d="M15.2697 55.0349C16.4481 55.1908 17.5728 54.4939 17.9579 53.3694L23.6887 38.307C25.0072 34.4566 21.7888 30.5736 17.7606 31.1548L2.06162 33.4197C0.995983 33.5735 0.162456 34.4169 0.0212807 35.4843C-0.183828 37.035 1.12304 38.3656 2.67724 38.1885L12.3862 38.1525C14.2985 37.9345 15.8268 39.7158 15.3208 41.5728L13.1891 51.9048C12.7918 53.3629 13.7714 54.8368 15.2697 55.0349Z" fill="white"/>
<path d="M12.1953 41.7073C11.0065 40.156 8.7852 39.8622 7.23393 41.0511C5.68266 42.2399 5.38887 44.4612 6.57772 46.0125C7.76657 47.5638 9.98787 47.8576 11.5391 46.6687C13.0904 45.4799 13.3842 43.2585 12.1953 41.7073Z" fill="white"/>
<path d="M46.3449 48.6071C47.2175 49.4143 47.3997 50.7248 46.7803 51.7394C45.9929 53.0293 44.2487 53.3289 43.076 52.3755L34.4901 46.2455C32.9967 45.0314 30.7493 45.7083 30.1749 47.5452L26.2794 56.4385C25.8125 57.9314 24.0669 58.5882 22.7317 57.7731C21.8127 57.2121 21.3787 56.1086 21.6693 55.0719L25.9502 39.799C27.0487 35.8801 31.9018 34.5081 34.8895 37.2718L46.3449 48.6071Z" fill="white"/>
<path d="M33.3485 49.1581C31.4488 49.6176 30.2814 51.5301 30.7409 53.4297C31.2004 55.3294 33.1129 56.4968 35.0125 56.0373C36.9121 55.5778 38.0796 53.6653 37.6201 51.7657C37.1606 49.8661 35.2481 48.6986 33.3485 49.1581Z" fill="white"/>
<path d="M48.8719 31.8593C48.6157 33.7969 49.9786 35.5753 51.9162 35.8316C53.8537 36.0879 55.6322 34.7249 55.8884 32.7874C56.1447 30.8498 54.7817 29.0714 52.8442 28.8151C50.9066 28.5588 49.1282 29.9218 48.8719 31.8593Z" fill="white"/>
<path d="M36.3492 10.1954C38.1544 10.9444 40.225 10.0882 40.974 8.283C41.723 6.47779 40.8668 4.4072 39.0616 3.65819C37.2564 2.90918 35.1858 3.7654 34.4368 5.57061C33.6878 7.37582 34.544 9.44641 36.3492 10.1954Z" fill="white"/>
<path d="M12.1823 16.6844C13.373 15.1346 13.0819 12.9129 11.532 11.7222C9.98219 10.5315 7.76055 10.8226 6.56984 12.3725C5.37913 13.9223 5.67025 16.144 7.22009 17.3347C8.76993 18.5254 10.9916 18.2342 12.1823 16.6844Z" fill="white"/>
<path d="M90.8173 45.1833V40.1673H73.0853L90.5973 19.0033V13.9873H66.9693V18.9593H83.7773L66.4853 39.9913V45.1833H90.8173Z" fill="white"/>
<path d="M99.1732 32.1153C99.3492 29.8273 101.197 27.3633 104.409 27.3633C107.929 27.3633 109.601 29.6073 109.689 32.1153H99.1732ZM110.261 37.7033C109.557 39.8153 107.973 41.4433 104.893 41.4433C101.725 41.4433 99.1732 39.1113 99.0412 35.8553H114.705C114.749 35.7673 114.837 35.0633 114.837 34.2273C114.837 27.4513 110.965 23.0953 104.365 23.0953C98.9532 23.0953 93.9372 27.5833 93.9372 34.3593C93.9372 41.6193 99.0852 45.8433 104.893 45.8433C110.041 45.8433 113.429 42.8073 114.573 39.0673L110.261 37.7033Z" fill="white"/>
<path d="M118.395 39.3753C118.395 42.7633 121.167 45.8433 125.655 45.8433C129.131 45.8433 131.243 44.0833 132.255 42.4553C132.255 44.1713 132.431 45.0513 132.475 45.1833H137.227C137.183 44.9633 136.963 43.6873 136.963 41.7513V31.1033C136.963 26.8353 134.455 23.0953 127.855 23.0953C122.575 23.0953 119.231 26.3953 118.835 30.0913L123.499 31.1473C123.719 28.9913 125.215 27.2753 127.899 27.2753C130.715 27.2753 131.947 28.7273 131.947 30.5313C131.947 31.2793 131.595 31.8953 130.363 32.0713L124.863 32.9073C121.211 33.4353 118.395 35.5473 118.395 39.3753ZM126.623 41.8393C124.599 41.8393 123.499 40.5193 123.499 39.0673C123.499 37.3073 124.775 36.4273 126.359 36.1633L131.947 35.3273V36.2953C131.947 40.4753 129.483 41.8393 126.623 41.8393Z" fill="white"/>
<path d="M148.237 45.1833V13.3273H143.133V45.1833H148.237Z" fill="white"/>
<path d="M164.236 41.2673C161.112 41.2673 158.252 38.8913 158.252 34.4473C158.252 30.0033 161.112 27.7153 164.236 27.7153C167.404 27.7153 170.22 30.0033 170.22 34.4473C170.22 38.9353 167.404 41.2673 164.236 41.2673ZM164.236 23.0953C157.856 23.0953 153.148 27.8913 153.148 34.4473C153.148 41.0473 157.856 45.8433 164.236 45.8433C170.66 45.8433 175.368 41.0473 175.368 34.4473C175.368 27.8913 170.66 23.0953 164.236 23.0953Z" fill="white"/>
<path d="M189.717 41.2673C186.593 41.2673 183.733 38.8913 183.733 34.4473C183.733 30.0033 186.593 27.7153 189.717 27.7153C192.885 27.7153 195.701 30.0033 195.701 34.4473C195.701 38.9353 192.885 41.2673 189.717 41.2673ZM189.717 23.0953C183.337 23.0953 178.629 27.8913 178.629 34.4473C178.629 41.0473 183.337 45.8433 189.717 45.8433C196.141 45.8433 200.849 41.0473 200.849 34.4473C200.849 27.8913 196.141 23.0953 189.717 23.0953Z" fill="white"/>
</svg>
